# xmcd
#
# Track frame offsets:
#	150
#	12596
#	24999
#	36032
#	47521
#	61728
#	75384
#	88906
#	102458
#	114301
#	125971
#	140315
#	152874
#	164538
#	178025
#	190748
#	202336
#	214686
#	227095
#	240981
#	251206
#	261923
#	275383
#	287632
#	298365
#	310493
#	320869
#	332333
#
# Disc length: 4585 seconds
# Revision: 0
# Processed by: cddbd v1.5.2PL0 Copyright (c) Steve Scherf et al.
# Submitted via: dBpowerAMP V12.0
#
DISCID=a511e71c
DTITLE=Various Artist - New York Blues 1945-1956: Rub A Little Boogie CDA
DYEAR=2008
DGENRE=Blues
TTITLE0=Brownie McGhee - Greyhound Bus
TTITLE1=Brownie McGhee - Bottom Blues
TTITLE2=Brownie McGhee and His Jook Block Busters - Brownie's Blues (Lordy Lord)
TTITLE3=Brownie McGhee and His Jook Block Busters - I'm 10,000 Years Old
TTITLE4=Brownie McGhee - Don't Dog Your Woman
TTITLE5=Brownie McGhee - Daisy
TTITLE6=Brownie McGhee and His Jook House Rockers - Christina
TTITLE7=Brownie McGhee and His Jook House Rockers - Worrying Over You
TTITLE8=Brownie McGhee and His Jook House Rockers - Bluebird, Bluebird
TTITLE9=Brownie McGhee and His Jook House Rockers - My Confession (I Want to Thank You)
TTITLE10=Brownie McGhee and His Jook House Rockers - Cheatin' and Lying
TTITLE11=Brownie McGhee and His Jook House Rockers - Need Someone to Love Me
TTITLE12=Brownie McGhee - When It's Love Time
TTITLE13=Brownie McGhee - I'd Love to Love You
TTITLE14=Brownie McGhee - Love's a Disease
TTITLE15=Brownie McGhee - My Fault
TTITLE16=Sonny Terry and His Night Owls - The Woman Is Killing Me
TTITLE17=Sonny Terry - I Don't Worry
TTITLE18=Sonny Terry - News for You Baby
TTITLE19=Sonny Terry and His Buckshot Five - Dangerous Woman (With a 45 in Her Hand)
TTITLE20=Sonny Terry and His Buckshot Five - I Love You Baby
TTITLE21=Sonny Terry and His Night Owls - Doggin' My Heart Around
TTITLE22=Sonny Terry and His Night Owls - Harmonica Hop
TTITLE23=Sonny Terry - Hooray, Hooray
TTITLE24=Sonny Terry - I'm Gonna Rock Your Wig
TTITLE25=Sonny Terry - Hoopin' and Jumpin'
TTITLE26=Sonny Terry - Sonny Is Drinking
TTITLE27=Sonny Terry - Ride and Roll
EXTD=
EXTT0=
EXTT1=
EXTT2=
EXTT3=
EXTT4=
EXTT5=
EXTT6=
EXTT7=
EXTT8=
EXTT9=
EXTT10=
EXTT11=
EXTT12=
EXTT13=
EXTT14=
EXTT15=
EXTT16=
EXTT17=
EXTT18=
EXTT19=
EXTT20=
EXTT21=
EXTT22=
EXTT23=
EXTT24=
EXTT25=
EXTT26=
EXTT27=
PLAYORDER=
